# xmcd CD database file
#
# Track frame offsets:
#	150
#	12919
#	24724
#	31775
#	47932
#	58965
#	70280
#	78190
#	91174
#	107485
#	116456
#	123773
#	135220
#	150578
#	165305
#	176122
#	193541
#
# Disc length: 2738 seconds
#
# Revision: 2
# Processed by: cddbd v1.4b41PL1 Copyright (c) Steve Scherf et al.
# Submitted via: Feurio! 1.50.2ß - http://www.feurio.com
#
DISCID=cd0ab011
DTITLE=Judy Winter  - in MARLENE
DYEAR=1900
DGENRE=
TTITLE0=Wenn ich mir was wünschen dürfte
TTITLE1=You Do Something To Me
TTITLE2=Nimm dich in acht vor blonden Frau'n
TTITLE3=Illusions
TTITLE4=Honeysuckle Rose
TTITLE5=Mutter, hast du mir vergeben
TTITLE6=Kinder heut' abend - The Boys In The Backroom
TTITLE7=Ich weiß nicht, zu wem ich gehöre
TTITLE8=Allein in einer großen Stadt
TTITLE9=Go Away From My Window
TTITLE10=Ne me quitte pas
TTITLE11=Mein Mann ist verhindert
TTITLE12=Lili Marleen
TTITLE13=Sag mir, wo die Blumen sind
TTITLE14=The Laziest Girl in Town
TTITLE15=Frag nicht, warum ich gehe
TTITLE16=Ich hab' noch einen Koffer in Berlin
EXTD=
EXTT0=
EXTT1=
EXTT2=
EXTT3=
EXTT4=
EXTT5=
EXTT6=
EXTT7=
EXTT8=
EXTT9=
EXTT10=
EXTT11=
EXTT12=
EXTT13=
EXTT14=
EXTT15=
EXTT16=
PLAYORDER=
